<?xml version="1.0"?>
<svg width="225.86870999999996" height="38.709602" xmlns="http://www.w3.org/2000/svg" xmlns:svg="http://www.w3.org/2000/svg" version="1.1">

 <metadata id="metadata5">image/svg+xml</metadata>
 <g class="layer">
  <title>Layer 1</title>
  <g id="layer1">
   <g fill="#487cff" font-family="sans-serif" font-size="50.8px" font-style="normal" font-weight="normal" id="text884" stroke-width="0.26" transform="translate(-25.7024 -86.1786)">
    <path d="m120.96,97.47q-0.69,-0.95 -1.81,-1.58q-1.12,-0.63 -2.64,-0.63q-1.88,0 -3.03,1.03q-1.15,0.99 -1.15,2.69q0,1.82 2.21,2.81l4.58,2.06q2.36,1.03 3.48,2.66q1.12,1.62 1.12,4q0,3.17 -1.31,5.47q-1.3,2.25 -3.54,3.45q-2.24,1.19 -5.06,1.19q-3.18,0 -5.4,-1.39q-2.21,-1.43 -3.3,-4q-0.13,-0.27 -0.13,-0.55q0,-0.27 0.24,-0.48l2.39,-1.9q0.21,-0.19 0.45,-0.19q0.36,0 0.67,0.51q0.79,1.26 1.43,1.98q0.67,0.67 1.6,1.03q0.97,0.36 2.49,0.36q1.91,0 3.09,-0.91q1.18,-0.95 1.18,-2.93q0,-0.99 -0.54,-1.62q-0.55,-0.68 -1.76,-1.23l-4.42,-1.94q-2.18,-0.95 -3.33,-2.77q-1.12,-1.86 -1.12,-4.24q0,-2.93 1.28,-5.18q1.27,-2.26 3.39,-3.49q2.15,-1.23 4.69,-1.23q2.61,0 4.57,1.23q2,1.19 3.09,3.09q0.24,0.4 0.24,0.59q0,0.19 -0.21,0.36l-2.7,2.33q-0.03,0.05 -0.12,0.05q-0.18,0 -0.64,-0.6z" fill="#487cff" id="path886" stroke-width="0.26"/>
    <path d="m133.19,120.6q-2.15,0 -3.82,-1.15q-1.66,-1.15 -2.58,-3.21q-0.91,-2.1 -0.91,-4.83q0,-3.25 1.18,-6.14q1.21,-2.93 3.3,-4.67q2.12,-1.79 4.72,-1.79q3.18,0 5.06,2.46q1.88,2.46 1.88,6.78q0,1.15 -0.13,2.21q-0.06,0.32 -0.21,0.48q-0.12,0.12 -0.48,0.12l-10.21,0q-0.49,0 -0.49,1.71q0,1.86 0.91,2.89q0.94,0.99 2.42,0.99q1.15,0 2.15,-0.64q1,-0.63 1.97,-1.98q0.15,-0.19 0.3,-0.19q0.09,0 0.39,0.16l2,1.23q0.36,0.16 0.36,0.51q0,0.19 -0.15,0.51q-1.76,2.57 -3.52,3.56q-1.72,0.99 -4.18,0.99zm3.85,-12.91q0.72,0 0.72,-1.54q0,-1.5 -0.69,-2.53q-0.7,-1.07 -1.94,-1.07q-1.51,0 -2.7,1.5q-1.15,1.47 -1.33,3.64l5.94,0z" fill="#487cff" id="path888" stroke-width="0.26"/>
    <path d="m152.52,118.27q-1.82,2.34 -4.97,2.34q-2.12,0 -3.33,-1.43q-1.21,-1.43 -1.21,-3.72q0,-2.81 1.43,-4.6q1.43,-1.82 3.57,-2.61q2.18,-0.83 4.51,-0.91l1.09,-0.12q0.57,0 0.67,-0.75l0.09,-0.83q0.03,-0.2 0.03,-0.63q0,-2.38 -2.09,-2.38q-2.4,0 -3.55,2.46q-0.15,0.27 -0.39,0.27q-0.18,0 -0.27,-0.04l-2.93,-0.91q-0.3,-0.08 -0.3,-0.51q0,-0.39 0.15,-0.79q2,-4.28 7.54,-4.28q3.27,0 4.79,1.5q1.54,1.5 1.54,4.16q0,0.35 -0.06,1.15l-1.51,13.86q-0.03,0.51 -0.13,0.63q-0.09,0.08 -0.42,0.08l-3.12,0q-0.3,0 -0.39,-0.23q-0.09,-0.24 -0.12,-0.8l0.03,-1.03q0,-0.32 -0.16,-0.32q-0.15,0 -0.48,0.44zm1.31,-7.6l0,-0.23q0,-0.16 -0.07,-0.2q-0.06,-0.08 -0.24,-0.04l-1.09,0.12q-1.76,0.16 -3.27,1.15q-1.51,0.99 -1.51,3.05q0,0.95 0.52,1.54q0.54,0.55 1.45,0.55q0.79,0 1.48,-0.28q0.7,-0.31 1.22,-0.83q1.12,-1.11 1.24,-2.26l0.27,-2.57z" fill="#487cff" id="path890" stroke-width="0.26"/>
    <path d="m161.13,120.21q-0.36,0 -0.54,-0.27q-0.15,-0.28 -0.09,-0.72l2.09,-19.44q0.03,-0.36 0.09,-0.44q0.1,-0.12 0.33,-0.12l3.61,0q0.54,0 0.42,0.83l-0.21,1.78l0,0.16q0,0.28 0.13,0.28q0.09,0 0.27,-0.23q1.06,-1.47 2.37,-2.34q1.3,-0.87 2.36,-0.87q0.64,0 0.94,0.12q0.3,0.12 0.27,0.48l-0.48,4.44q-0.03,0.44 -0.12,0.55q-0.07,0.12 -0.24,0.09q-1.03,-0.2 -2.06,-0.2q-0.79,0 -1.66,0.55q-0.88,0.51 -1.51,1.39q-0.61,0.83 -0.7,1.66l-1.24,11.57q-0.06,0.51 -0.21,0.63q-0.12,0.12 -0.57,0.12l-3.21,0z" fill="#487cff" id="path892" stroke-width="0.26"/>
    <path d="m192.51,118.82q0.27,0.64 0.27,0.95q0,0.24 -0.16,0.36q-0.15,0.08 -0.45,0.08l-4.21,0q-0.36,0 -0.57,-0.12q-0.18,-0.12 -0.3,-0.48l-3.36,-9.15q-0.15,-0.4 -0.3,-0.4q-0.09,0 -0.33,0.44l-5.39,9.22q-0.15,0.32 -0.36,0.4q-0.18,0.08 -0.64,0.08l-3.54,0q-0.61,0 -0.61,-0.51q0,-0.35 0.46,-1.19l7.75,-12.72q0.33,-0.48 0.33,-0.83q0,-0.27 -0.06,-0.43l-5.06,-12.91q-0.09,-0.2 -0.09,-0.4q0,-0.4 0.45,-0.4l4.42,0q0.39,0 0.55,0.12q0.15,0.12 0.3,0.51l2.94,8.09q0.09,0.31 0.21,0.31q0.12,0 0.3,-0.31l4.79,-8.24q0.18,-0.32 0.33,-0.4q0.18,-0.08 0.57,-0.08l3.91,0q0.36,0 0.36,0.44q0,0.31 -0.18,0.71l-7.51,12.2q-0.3,0.51 -0.3,0.71q0,0.16 0.09,0.4l5.39,13.54z" fill="#487cff" id="path894" stroke-width="0.26"/>
    <path d="m217.34,90.82q0.21,0 0.27,0.16q0.06,0.12 0.03,0.44l-3.06,28.36q-0.03,0.28 -0.15,0.36q-0.1,0.08 -0.33,0.08l-3.09,0q-0.39,0 -0.7,-0.63l-7.82,-17.71q-0.09,-0.19 -0.18,-0.19q-0.18,0 -0.21,0.44l-1.88,17.46q-0.06,0.4 -0.18,0.51q-0.1,0.12 -0.43,0.12l-3.33,0q-0.49,0 -0.42,-0.87l3.03,-27.93q0.06,-0.4 0.12,-0.48q0.09,-0.12 0.39,-0.12l3.67,0q0.3,0 0.45,0.19q0.18,0.16 0.33,0.55l7.15,16.52q0.15,0.31 0.3,0.31q0.24,0 0.27,-0.48l1.76,-16.59q0.03,-0.32 0.12,-0.4q0.12,-0.12 0.39,-0.12l3.48,0z" fill="#487cff" id="path896" stroke-width="0.26"/>
    <path d="m228.27,120.6q-2.73,0 -4.73,-1.5q-2,-1.5 -3.06,-4.24q-1.03,-2.77 -1.03,-6.49q0,-4.91 1.48,-8.99q1.48,-4.12 4.21,-6.53q2.73,-2.42 6.27,-2.42q2.43,0 4.28,1.23q1.88,1.22 2.9,3.24q1.03,1.98 1.09,4.24q0,0.4 -0.06,0.59q-0.03,0.16 -0.15,0.19l-4.15,0.8l-0.03,0q-0.13,0 -0.21,-0.19q-0.06,-0.2 -0.15,-0.8q-0.21,-1.98 -1.15,-3.21q-0.91,-1.22 -2.58,-1.22q-2.15,0 -3.58,2.06q-1.39,2.06 -2.06,5.31q-0.67,3.2 -0.67,6.69q0,3.41 0.97,4.91q1,1.47 2.9,1.47q1.85,0 3.12,-1.34q1.27,-1.35 1.88,-3.29l0.18,-1.11q0.09,-0.2 0.09,-0.28q0,-0.23 -0.36,-0.23l-3.73,0q-0.18,0 -0.24,-0.09q-0.06,-0.12 -0.03,-0.43l0.27,-3.25q0.04,-0.44 0.3,-0.44l8.66,0.04q0.36,0 0.45,0.16q0.13,0.12 0.06,0.51l-1.48,13.7q-0.04,0.51 -0.49,0.51l-0.91,0q-0.27,0 -0.42,-0.12q-0.13,-0.12 -0.21,-0.48l-0.51,-2.89q-0.03,-0.19 -0.21,-0.19q-0.18,0 -0.39,0.31q-1,1.63 -2.61,2.7q-1.6,1.07 -3.94,1.07z" fill="#487cff" id="path898" stroke-width="0.26"/>
   </g>
  </g>
  <text fill="#00007f" font-family="Fantasy" font-size="24" id="svg_1" stroke="#000000" stroke-width="0" text-anchor="middle" transform="matrix(0.677265 0 0 0.868596 26.546 7.15242)" x="16.64" xml:space="preserve" y="18.42">Ollo&#x27;s</text>
 </g>
</svg>